<svg width="50" height="50" viewBox="0 0 50 50" fill="none" xmlns="http://www.w3.org/2000/svg">
<g clip-path="url(#clip0_17_1061)">
<path d="M22.9168 18.7499H27.0835V12.4999H33.3335V8.33325H27.0835V2.08325H22.9168V8.33325H16.6668V12.4999H22.9168V18.7499ZM14.5835 37.4999C12.2918 37.4999 10.4377 39.3749 10.4377 41.6666C10.4377 43.9583 12.2918 45.8333 14.5835 45.8333C16.8752 45.8333 18.7502 43.9583 18.7502 41.6666C18.7502 39.3749 16.8752 37.4999 14.5835 37.4999ZM35.4168 37.4999C33.1252 37.4999 31.271 39.3749 31.271 41.6666C31.271 43.9583 33.1252 45.8333 35.4168 45.8333C37.7085 45.8333 39.5835 43.9583 39.5835 41.6666C39.5835 39.3749 37.7085 37.4999 35.4168 37.4999ZM16.8752 27.0833H32.396C33.9585 27.0833 35.3335 26.2291 36.0418 24.9374L44.0835 10.3333L40.4585 8.33325L32.396 22.9166H17.771L8.896 4.16659H2.0835V8.33325H6.25016L13.7502 24.1458L10.9377 29.2291C9.41683 32.0208 11.4168 35.4166 14.5835 35.4166H39.5835V31.2499H14.5835L16.8752 27.0833Z" fill="#B7B7B7"/>
</g>
<defs>
<clipPath id="clip0_17_1061">
<rect width="50" height="50" fill="white"/>
</clipPath>
</defs>
</svg>
