<svg width="50" height="50" viewBox="0 0 50 50" fill="none" xmlns="http://www.w3.org/2000/svg">
<g clip-path="url(#clip0_17_1064)">
<path d="M25.0002 12.4999C27.2918 12.4999 29.1668 14.3749 29.1668 16.6666C29.1668 18.9583 27.2918 20.8333 25.0002 20.8333C22.7085 20.8333 20.8335 18.9583 20.8335 16.6666C20.8335 14.3749 22.7085 12.4999 25.0002 12.4999ZM25.0002 33.3333C30.6252 33.3333 37.0835 36.0208 37.5002 37.4999H12.5002C12.9793 35.9999 19.396 33.3333 25.0002 33.3333ZM25.0002 8.33325C20.396 8.33325 16.6668 12.0624 16.6668 16.6666C16.6668 21.2708 20.396 24.9999 25.0002 24.9999C29.6043 24.9999 33.3335 21.2708 33.3335 16.6666C33.3335 12.0624 29.6043 8.33325 25.0002 8.33325ZM25.0002 29.1666C19.4377 29.1666 8.3335 31.9583 8.3335 37.4999V41.6666H41.6668V37.4999C41.6668 31.9583 30.5627 29.1666 25.0002 29.1666Z" fill="#B7B7B7"/>
</g>
<defs>
<clipPath id="clip0_17_1064">
<rect width="50" height="50" fill="white"/>
</clipPath>
</defs>
</svg>
